<svg id="Layer_1" data-name="Layer 1" xmlns="http://www.w3.org/2000/svg" width="29.59379mm" height="13.11694mm" viewBox="0 0 83.88792 37.18188">
  <defs>
    <style>
      .cls-1 {
        fill: #fcfcfc;
      }
    </style>
  </defs>
  <title>DKB patternlab logo white</title>
  <g>
    <g>
      <path class="cls-1" d="M50.82426,77.7942V67.732h3.41306c3.135,0,4.72484,1.6336,4.72484,4.9436,0,3.41306-1.61906,5.11865-4.95823,5.11865Zm3.20884-2.042c1.58989,0,2.20155-1.07738,2.20155-3.17778,0-1.92534-.87524-2.80049-2.05568-2.80049h-.65638v5.97827Z" transform="translate(-28.92141 -52.2752)"/>
      <path class="cls-1" d="M59.6759,77.7942V67.732h5.71668l-.1167,2.04194H62.37233v1.89617h2.67026v1.95452H62.37233v2.12758H65.7135v2.042Z" transform="translate(-28.92141 -52.2752)"/>
      <path class="cls-1" d="M68.19118,77.7942V69.77389h-2.115V67.732h6.92738v2.04194h-2.115V77.7942Z" transform="translate(-28.92141 -52.2752)"/>
      <path class="cls-1" d="M76.92512,77.7942V67.732h2.69743V77.7942Zm5.1761,0-2.33278-5.16147,2.4213-4.90078H84.785l-2.2608,4.7102,2.66925,5.35205Z" transform="translate(-28.92141 -52.2752)"/>
      <path class="cls-1" d="M89.97666,72.89531l2.44938-.599V77.415a7.29814,7.29814,0,0,1-2.91619.55423c-2.713,0-4.72583-1.80665-4.72583-5.19064,0-3.52976,2.33379-5.22171,4.91542-5.22171a5.09821,5.09821,0,0,1,2.81413.77209l-.75845,1.73665a5.004,5.004,0,0,0-1.96816-.49587c-1.371,0-2.27534,1.22515-2.27534,3.238,0,1.60442.7001,2.94438,2.465,3.10389Z" transform="translate(-28.92141 -52.2752)"/>
      <path class="cls-1" d="M93.78063,77.7942V67.732h2.69744v8.02021h2.97454v2.042Z" transform="translate(-28.92141 -52.2752)"/>
      <path class="cls-1" d="M50.82426,89.282V79.21978h2.94626c2.25991,0,3.68928.51141,3.68928,2.59627a2.24907,2.24907,0,0,1-1.64823,2.08675v.05636A2.13144,2.13144,0,0,1,57.664,86.17625c0,2.18792-1.57524,3.10578-3.8935,3.10578Zm3.0776-6.12413c.61257,0,.90432-.32083.90432-.99175,0-.68457-.33546-.90432-.90432-.90432h-.37927V83.1579Zm0,4.08219c.68557,0,1.06473-.33457,1.06473-1.17855,0-.81879-.35-1.11053-.99184-1.11053h-.45216v2.28908Z" transform="translate(-28.92141 -52.2752)"/>
      <path class="cls-1" d="M58.56736,89.282V79.21978h2.69843V89.282Z" transform="translate(-28.92141 -52.2752)"/>
      <path class="cls-1" d="M62.45986,89.282V79.21978h2.94636c2.25981,0,3.68928.51141,3.68928,2.59627a2.24939,2.24939,0,0,1-1.64723,2.08675v.05636a2.13134,2.13134,0,0,1,1.85135,2.21709c0,2.18792-1.57325,3.10578-3.8934,3.10578Zm3.0786-6.12413c.61257,0,.90432-.32083.90432-.99175,0-.68457-.33646-.90432-.90432-.90432h-.37928V83.1579Zm0,4.08219c.68456,0,1.06383-.33457,1.06383-1.17855,0-.81879-.3501-1.11053-.99184-1.11053h-.45127v2.28908Z" transform="translate(-28.92141 -52.2752)"/>
      <path class="cls-1" d="M70.31975,89.282V79.21978h2.69833v8.02031h2.97455V89.282Z" transform="translate(-28.92141 -52.2752)"/>
      <path class="cls-1" d="M76.92512,89.282V79.21978h2.69743V89.282Z" transform="translate(-28.92141 -52.2752)"/>
      <path class="cls-1" d="M80.56969,84.25091c0-3.52787,2.04105-5.20617,4.5498-5.20617s4.55087,1.6783,4.55087,5.20617c0,3.52976-2.042,5.20617-4.55087,5.20617S80.56969,87.78067,80.56969,84.25091Zm6.35843,0c0-2.08476-.7001-3.16413-1.80863-3.16413s-1.82219,1.07937-1.82219,3.16413S84.011,87.415,85.11949,87.415,86.92812,86.33577,86.92812,84.25091Z" transform="translate(-28.92141 -52.2752)"/>
      <path class="cls-1" d="M92.0167,89.282v-8.0202H89.90077V79.21978h6.92929v2.04205H94.71413V89.282Z" transform="translate(-28.92141 -52.2752)"/>
      <path class="cls-1" d="M97.67314,89.282V79.21978h5.71758l-.1166,2.04205h-2.90265V83.1579h2.66925v1.95262h-2.66925v2.12957h3.34017V89.282Z" transform="translate(-28.92141 -52.2752)"/>
      <path class="cls-1" d="M104.54208,89.282V79.21978h2.69644V89.282Zm5.176,0-2.3337-5.16335,2.42123-4.8989H112.402l-2.25991,4.7122,2.66726,5.35005Z" transform="translate(-28.92141 -52.2752)"/>
      <rect class="cls-1" x="71.37718" y="23.47695" width="2.04205" height="2.04403"/>
    </g>
    <path class="cls-1" d="M35.95846,52.2752A6.98876,6.98876,0,1,1,28.9697,59.264a7.04483,7.04483,0,0,1,6.98876-6.98876m-.33993,4.51658v3.34177h.677V56.79178a.32375.32375,0,0,0-.32839-.32741A.34209.34209,0,0,0,35.61853,56.79178Zm-1.46917,3.34177h.69632l-.00818-.01538a9.81723,9.81723,0,0,1-.86-2.51548.379.379,0,0,1,.42761-.40925,1.157,1.157,0,0,1,.35244.07021l.00966.002.16657-.547-.00484-.00384a1.865,1.865,0,0,0-.64948-.14733,1.02975,1.02975,0,0,0-.7257.28411.98086.98086,0,0,0-.29082.71456,7.89361,7.89361,0,0,0,.8826,2.56163Zm-1.45605-.54889a4.461,4.461,0,0,1-.703-1.78454.432.432,0,0,1,.48341-.48055,1.53963,1.53963,0,0,1,.28461.03461l.00956.003.16084-.5345-.00868-.002a1.97865,1.97865,0,0,0-.60953-.10394.99678.99678,0,0,0-1.05262,1.0323,4.05758,4.05758,0,0,0,.70588,1.8587l.30719.52582h.71555Zm4.46174-2.321a1.1731,1.1731,0,0,1,.35393-.07021.38088.38088,0,0,1,.43.40925,9.7958,9.7958,0,0,1-.86336,2.51548l-.00583.01538h.694l.00473-.00582a7.87384,7.87384,0,0,0,.88122-2.56163.97508.97508,0,0,0-.29081-.71456,1.02416,1.02416,0,0,0-.72473-.28411,1.85031,1.85031,0,0,0-.64809.14733l-.00868.00384.16567.547Zm3.21367-.25226a1.06342,1.06342,0,0,0-.76614-.29466,1.98917,1.98917,0,0,0-.60964.10394l-.00769.002.16183.5345.00966-.003a1.52324,1.52324,0,0,1,.285-.03461.43092.43092,0,0,1,.48055.48055,4.459,4.459,0,0,1-.70155,1.78454l-.29377.54889h.71655l.30768-.52582a4.06117,4.06117,0,0,0,.704-1.8587A1.05242,1.05242,0,0,0,40.36872,57.01139Zm-7.6692,5.65686h3.89885l-3.89885.73962v.55086h6.51541v-.53735H35.50818l3.70675-.7339V62.1309H32.69952Zm0-1.15567h6.51541v-.58745H32.69952Zm3.54305-6.25486v-.51043h.45067v-.45551h-.45067v-.83211h-.56921v.83211h-.45067v.45551h.45067v.51043A.90575.90575,0,0,0,35.06,56.006a3.436,3.436,0,0,1,1.796,0A.9057.9057,0,0,0,36.24257,55.25772Z" transform="translate(-28.92141 -52.2752)"/>
    <g>
      <rect class="cls-1" x="0.00195" y="35.83583" width="18.76502" height="1.17099"/>
      <rect class="cls-1" x="28.92282" y="84.36551" width="18.76502" height="1.17099" transform="translate(-38.98881 -46.97374) rotate(-7)"/>
      <rect class="cls-1" x="37.72442" y="70.77185" width="1.17099" height="18.72924" transform="translate(-73.78195 59.04106) rotate(-85)"/>
      <rect class="cls-1" x="37.72442" y="65.9735" width="1.171" height="18.73927" transform="matrix(0.08716, -0.99619, 0.99619, 0.08716, -69.00686, 54.66547)"/>
      <rect class="cls-1" x="28.84732" y="69.68563" width="18.91644" height="1.17099" transform="translate(-42.69453 -42.77544) rotate(-12)"/>
    </g>
  </g>
</svg>
